<mxfile host="app.diagrams.net" modified="2020-09-08T15:11:51.563Z" agent="5.0 (Windows NT 10.0; Win64; x64) AppleWebKit/537.36 (KHTML, like Gecko) Chrome/84.0.4147.135 Safari/537.36" etag="Qmt1bozdDXoTzpAsayKa" version="13.4.9" type="github">
  <diagram id="IsJlTYP47dqSS6IdlzRU" name="Page-1">
    <mxGraphModel dx="1038" dy="531" grid="1" gridSize="10" guides="1" tooltips="1" connect="1" arrows="1" fold="1" page="1" pageScale="1" pageWidth="850" pageHeight="1100" math="0" shadow="0">
      <root>
        <mxCell id="0" />
        <mxCell id="1" parent="0" />
        <mxCell id="liMHWO5myevF6spP6ppV-3" value="" style="edgeStyle=orthogonalEdgeStyle;rounded=0;orthogonalLoop=1;jettySize=auto;html=1;" edge="1" parent="1" source="liMHWO5myevF6spP6ppV-1" target="liMHWO5myevF6spP6ppV-2">
          <mxGeometry relative="1" as="geometry" />
        </mxCell>
        <mxCell id="liMHWO5myevF6spP6ppV-1" value="start&lt;br&gt;" style="ellipse;whiteSpace=wrap;html=1;" vertex="1" parent="1">
          <mxGeometry x="130" y="40" width="120" height="80" as="geometry" />
        </mxCell>
        <mxCell id="liMHWO5myevF6spP6ppV-5" value="" style="edgeStyle=orthogonalEdgeStyle;rounded=0;orthogonalLoop=1;jettySize=auto;html=1;" edge="1" parent="1" source="liMHWO5myevF6spP6ppV-2" target="liMHWO5myevF6spP6ppV-4">
          <mxGeometry relative="1" as="geometry" />
        </mxCell>
        <mxCell id="liMHWO5myevF6spP6ppV-2" value="get 2 numbers from user" style="shape=parallelogram;perimeter=parallelogramPerimeter;whiteSpace=wrap;html=1;" vertex="1" parent="1">
          <mxGeometry x="100" y="210" width="180" height="80" as="geometry" />
        </mxCell>
        <mxCell id="liMHWO5myevF6spP6ppV-7" value="" style="edgeStyle=orthogonalEdgeStyle;rounded=0;orthogonalLoop=1;jettySize=auto;html=1;" edge="1" parent="1" source="liMHWO5myevF6spP6ppV-4" target="liMHWO5myevF6spP6ppV-6">
          <mxGeometry relative="1" as="geometry" />
        </mxCell>
        <mxCell id="liMHWO5myevF6spP6ppV-4" value="add numbers together" style="whiteSpace=wrap;html=1;" vertex="1" parent="1">
          <mxGeometry x="130" y="380" width="120" height="60" as="geometry" />
        </mxCell>
        <mxCell id="liMHWO5myevF6spP6ppV-9" value="" style="edgeStyle=orthogonalEdgeStyle;rounded=0;orthogonalLoop=1;jettySize=auto;html=1;" edge="1" parent="1" source="liMHWO5myevF6spP6ppV-6" target="liMHWO5myevF6spP6ppV-8">
          <mxGeometry relative="1" as="geometry" />
        </mxCell>
        <mxCell id="liMHWO5myevF6spP6ppV-6" value="display result&lt;br&gt;" style="shape=parallelogram;perimeter=parallelogramPerimeter;whiteSpace=wrap;html=1;" vertex="1" parent="1">
          <mxGeometry x="130" y="520" width="120" height="60" as="geometry" />
        </mxCell>
        <mxCell id="liMHWO5myevF6spP6ppV-11" value="yes" style="edgeStyle=orthogonalEdgeStyle;rounded=0;orthogonalLoop=1;jettySize=auto;html=1;exitX=1;exitY=0.5;exitDx=0;exitDy=0;entryX=1;entryY=0.5;entryDx=0;entryDy=0;" edge="1" parent="1" source="liMHWO5myevF6spP6ppV-8" target="liMHWO5myevF6spP6ppV-2">
          <mxGeometry relative="1" as="geometry">
            <Array as="points">
              <mxPoint x="380" y="690" />
              <mxPoint x="380" y="250" />
            </Array>
          </mxGeometry>
        </mxCell>
        <mxCell id="liMHWO5myevF6spP6ppV-13" value="no" style="edgeStyle=orthogonalEdgeStyle;rounded=0;orthogonalLoop=1;jettySize=auto;html=1;" edge="1" parent="1" source="liMHWO5myevF6spP6ppV-8" target="liMHWO5myevF6spP6ppV-12">
          <mxGeometry relative="1" as="geometry" />
        </mxCell>
        <mxCell id="liMHWO5myevF6spP6ppV-8" value="repeat?" style="rhombus;whiteSpace=wrap;html=1;" vertex="1" parent="1">
          <mxGeometry x="150" y="650" width="80" height="80" as="geometry" />
        </mxCell>
        <mxCell id="liMHWO5myevF6spP6ppV-12" value="end" style="ellipse;whiteSpace=wrap;html=1;" vertex="1" parent="1">
          <mxGeometry x="130" y="810" width="120" height="80" as="geometry" />
        </mxCell>
      </root>
    </mxGraphModel>
  </diagram>
</mxfile>
